<svg width="294" height="220" viewBox="0 0 294 220" fill="none" xmlns="http://www.w3.org/2000/svg">
<path d="M92.9 219.2C74.9 219.2 58.9 214.9 44.9 206.3C30.9 197.7 19.9 185.2 11.9 168.8C4.1 152.2 0.200001 132.6 0.200001 110C0.200001 87.4 4.1 67.9 11.9 51.5C19.9 34.9 30.9 22.3 44.9 13.7C58.9 5.09999 74.9 0.799986 92.9 0.799986C110.7 0.799986 126.6 5.09999 140.6 13.7C154.6 22.3 165.5 34.9 173.3 51.5C181.3 67.9 185.3 87.4 185.3 110C185.3 132.6 181.3 152.2 173.3 168.8C165.5 185.2 154.6 197.7 140.6 206.3C126.6 214.9 110.7 219.2 92.9 219.2ZM92.9 170.6C102.9 170.6 110.8 165.8 116.6 156.2C122.6 146.4 125.6 131 125.6 110C125.6 89 122.6 73.7 116.6 64.1C110.8 54.3 102.9 49.4 92.9 49.4C82.7 49.4 74.6 54.3 68.6 64.1C62.8 73.7 59.9 89 59.9 110C59.9 131 62.8 146.4 68.6 156.2C74.6 165.8 82.7 170.6 92.9 170.6ZM293.227 4.99999V215H233.827V50.9H194.827V4.99999H293.227Z" fill="white"/>
</svg>
