<svg width="366" height="220" viewBox="0 0 366 220" fill="none" xmlns="http://www.w3.org/2000/svg">
<path d="M92.9 219.2C74.9 219.2 58.9 214.9 44.9 206.3C30.9 197.7 19.9 185.2 11.9 168.8C4.1 152.2 0.200001 132.6 0.200001 110C0.200001 87.4 4.1 67.9 11.9 51.5C19.9 34.9 30.9 22.3 44.9 13.7C58.9 5.09999 74.9 0.799986 92.9 0.799986C110.7 0.799986 126.6 5.09999 140.6 13.7C154.6 22.3 165.5 34.9 173.3 51.5C181.3 67.9 185.3 87.4 185.3 110C185.3 132.6 181.3 152.2 173.3 168.8C165.5 185.2 154.6 197.7 140.6 206.3C126.6 214.9 110.7 219.2 92.9 219.2ZM92.9 170.6C102.9 170.6 110.8 165.8 116.6 156.2C122.6 146.4 125.6 131 125.6 110C125.6 89 122.6 73.7 116.6 64.1C110.8 54.3 102.9 49.4 92.9 49.4C82.7 49.4 74.6 54.3 68.6 64.1C62.8 73.7 59.9 89 59.9 110C59.9 131 62.8 146.4 68.6 156.2C74.6 165.8 82.7 170.6 92.9 170.6ZM365.527 167.9V215H202.027V177.8L280.627 104.3C288.227 97.1 293.327 91 295.927 86C298.527 80.8 299.827 75.6 299.827 70.4C299.827 63.6 297.527 58.3 292.927 54.5C288.327 50.7 281.627 48.8 272.827 48.8C265.027 48.8 257.827 50.6 251.227 54.2C244.827 57.6 239.527 62.6 235.327 69.2L191.227 44.6C199.427 31 210.927 20.3 225.727 12.5C240.527 4.69999 258.027 0.799986 278.227 0.799986C294.227 0.799986 308.327 3.39999 320.527 8.59999C332.927 13.8 342.527 21.3 349.327 31.1C356.327 40.7 359.827 51.9 359.827 64.7C359.827 76.1 357.327 86.9 352.327 97.1C347.527 107.1 338.127 118.5 324.127 131.3L284.527 167.9H365.527Z" fill="white"/>
</svg>
