<svg width="365" height="220" viewBox="0 0 365 220" fill="none" xmlns="http://www.w3.org/2000/svg">
<path d="M92.9 219.2C74.9 219.2 58.9 214.9 44.9 206.3C30.9 197.7 19.9 185.2 11.9 168.8C4.1 152.2 0.200001 132.6 0.200001 110C0.200001 87.4 4.1 67.9 11.9 51.5C19.9 34.9 30.9 22.3 44.9 13.7C58.9 5.09999 74.9 0.799986 92.9 0.799986C110.7 0.799986 126.6 5.09999 140.6 13.7C154.6 22.3 165.5 34.9 173.3 51.5C181.3 67.9 185.3 87.4 185.3 110C185.3 132.6 181.3 152.2 173.3 168.8C165.5 185.2 154.6 197.7 140.6 206.3C126.6 214.9 110.7 219.2 92.9 219.2ZM92.9 170.6C102.9 170.6 110.8 165.8 116.6 156.2C122.6 146.4 125.6 131 125.6 110C125.6 89 122.6 73.7 116.6 64.1C110.8 54.3 102.9 49.4 92.9 49.4C82.7 49.4 74.6 54.3 68.6 64.1C62.8 73.7 59.9 89 59.9 110C59.9 131 62.8 146.4 68.6 156.2C74.6 165.8 82.7 170.6 92.9 170.6ZM310.341 89C327.741 92.6 341.041 99.8 350.241 110.6C359.641 121.2 364.341 134.1 364.341 149.3C364.341 161.7 360.941 173.2 354.141 183.8C347.541 194.4 337.341 203 323.541 209.6C309.941 216 293.041 219.2 272.841 219.2C258.041 219.2 243.341 217.4 228.741 213.8C214.341 210.2 201.841 205.1 191.241 198.5L212.841 153.8C221.041 159.4 230.241 163.7 240.441 166.7C250.841 169.7 261.041 171.2 271.041 171.2C281.241 171.2 289.341 169.3 295.341 165.5C301.341 161.7 304.341 156.3 304.341 149.3C304.341 135.7 293.641 128.9 272.241 128.9H247.341V91.4L284.841 50.9H202.041V4.99999H353.841V42.2L310.341 89Z" fill="white"/>
</svg>
