<svg width="371" height="220" viewBox="0 0 371 220" fill="none" xmlns="http://www.w3.org/2000/svg">
<path opacity="0.8" d="M92.9 219.2C74.9 219.2 58.9 214.9 44.9 206.3C30.9 197.7 19.9 185.2 11.9 168.8C4.1 152.2 0.200001 132.6 0.200001 110C0.200001 87.4 4.1 67.9 11.9 51.5C19.9 34.9 30.9 22.3 44.9 13.7C58.9 5.09999 74.9 0.799986 92.9 0.799986C110.7 0.799986 126.6 5.09999 140.6 13.7C154.6 22.3 165.5 34.9 173.3 51.5C181.3 67.9 185.3 87.4 185.3 110C185.3 132.6 181.3 152.2 173.3 168.8C165.5 185.2 154.6 197.7 140.6 206.3C126.6 214.9 110.7 219.2 92.9 219.2ZM92.9 170.6C102.9 170.6 110.8 165.8 116.6 156.2C122.6 146.4 125.6 131 125.6 110C125.6 89 122.6 73.7 116.6 64.1C110.8 54.3 102.9 49.4 92.9 49.4C82.7 49.4 74.6 54.3 68.6 64.1C62.8 73.7 59.9 89 59.9 110C59.9 131 62.8 146.4 68.6 156.2C74.6 165.8 82.7 170.6 92.9 170.6ZM284.171 81.5C313.571 81.5 335.271 87.5 349.271 99.5C363.471 111.5 370.571 127.5 370.571 147.5C370.571 160.5 367.171 172.5 360.371 183.5C353.771 194.3 343.571 203 329.771 209.6C316.171 216 299.271 219.2 279.071 219.2C264.271 219.2 249.571 217.4 234.971 213.8C220.571 210.2 208.171 205.1 197.771 198.5L219.071 153.8C227.471 159.4 236.671 163.7 246.671 166.7C256.871 169.7 267.071 171.2 277.271 171.2C287.471 171.2 295.571 169.3 301.571 165.5C307.771 161.5 310.871 156 310.871 149C310.871 142 307.871 136.7 301.871 133.1C295.871 129.5 285.271 127.7 270.071 127.7H213.071L223.571 4.99999H357.371V50.9H272.771L270.071 81.5H284.171Z" fill="white"/>
</svg>
